<svg width="35" height="36" viewBox="0 0 35 36" fill="none" xmlns="http://www.w3.org/2000/svg">
<g clip-path="url(#clip0_2003_47)">
<path d="M13.3929 14.8386L12.9877 17.1994C12.8808 17.823 13.1333 18.4419 13.6454 18.8131C13.9343 19.0221 14.2714 19.129 14.6108 19.129C14.8739 19.129 15.137 19.0656 15.3801 18.9376L17.5 17.8218L19.6188 18.9352C20.179 19.23 20.8426 19.183 21.3559 18.8131C21.8679 18.4419 22.1193 17.823 22.0136 17.1982L21.6084 14.8386L23.3219 13.1674C23.7765 12.7269 23.9362 12.0786 23.7412 11.4773C23.5451 10.8748 23.0342 10.4437 22.4094 10.3545L20.0381 10.0104L18.9799 7.86224L18.9787 7.86107C18.6992 7.2938 18.1319 6.94263 17.5 6.94263C16.8682 6.94263 16.3009 7.29497 16.0202 7.86224L14.962 10.0104L12.5931 10.3545C11.9659 10.4437 11.455 10.8748 11.2589 11.4773C11.0639 12.0798 11.2248 12.7269 11.677 13.1662L13.3929 14.8386ZM15.8158 12.0222C16.16 11.9717 16.4571 11.7556 16.6121 11.4444L17.5 9.64275L18.3879 11.4432C18.543 11.7556 18.8401 11.9706 19.1842 12.0211L21.1715 12.31L19.7339 13.7111C19.4837 13.9543 19.3698 14.3043 19.4297 14.6472L19.7691 16.6262L17.991 15.6913C17.6833 15.5304 17.3145 15.5304 17.0068 15.6913L15.2286 16.6262L15.568 14.6472C15.6279 14.3043 15.514 13.9543 15.2638 13.7111L13.8263 12.31L15.8158 12.0222Z" fill="#333333"/>
<path d="M30.121 13.3517C30.121 6.39288 24.4588 0.730713 17.5 0.730713C10.5412 0.730713 4.87906 6.39288 4.87906 13.3517C4.87906 17.3097 6.71477 20.8437 9.57463 23.1597V34.0542C9.57463 34.6708 9.9117 35.2357 10.4543 35.5294C10.9981 35.8206 11.6523 35.796 12.1691 35.4554L17.5 31.9542L22.831 35.4542C23.1093 35.6374 23.43 35.729 23.7494 35.729C24.0219 35.729 24.2955 35.6621 24.5457 35.5282C25.0883 35.2346 25.4254 34.6708 25.4254 34.053V23.1586C28.2852 20.8437 30.121 17.3097 30.121 13.3517ZM6.9943 13.3517C6.9943 7.55796 11.7063 2.84478 17.5 2.84478C23.2937 2.84478 28.0057 7.55796 28.0057 13.3505C28.0057 19.143 23.2937 23.8574 17.5 23.8574C11.7063 23.8574 6.9943 19.1442 6.9943 13.3517ZM23.3102 33.2403L18.4185 30.0281C17.8606 29.6628 17.1394 29.6617 16.5804 30.0293L11.6899 33.2403V24.5433C13.4316 25.4511 15.4047 25.9726 17.5 25.9726C19.5953 25.9726 21.5696 25.4511 23.3102 24.5433V33.2403Z" fill="#333333"/>
</g>
<defs>
<clipPath id="clip0_2003_47">
<rect width="35" height="35" fill="white" transform="translate(0 0.730713)"/>
</clipPath>
</defs>
</svg>
