<svg width="31" height="32" viewBox="0 0 31 32" fill="none" xmlns="http://www.w3.org/2000/svg">
<path d="M15.5001 0.730713C6.95326 0.730713 7.62939e-05 7.6839 7.62939e-05 16.2307C7.62939e-05 16.9295 0.566618 17.496 1.26538 17.496C1.96415 17.496 2.53069 16.9295 2.53069 16.2307C2.53069 9.07953 8.3489 3.26133 15.5001 3.26133C22.6513 3.26133 28.4695 9.07953 28.4695 16.2307C28.4695 23.3819 22.6513 29.2001 15.5001 29.2001C14.8013 29.2001 14.2348 29.7667 14.2348 30.4655C14.2348 31.1642 14.8013 31.7308 15.5001 31.7308C24.0469 31.7308 31.0001 24.7776 31.0001 16.2307C31.0001 7.6839 24.0469 0.730713 15.5001 0.730713Z" fill="#333333"/>
<path d="M15.5002 9.79883C14.8014 9.79883 14.2349 10.3654 14.2349 11.0641V16.2307C14.2349 16.5663 14.3684 16.888 14.6056 17.1256L20.6686 23.1886C20.9154 23.4357 21.2396 23.5591 21.5632 23.5591C21.8868 23.5591 22.2111 23.4354 22.4578 23.1886C22.9522 22.6942 22.9522 21.8933 22.4578 21.3992L16.7655 15.7066V11.0641C16.7655 10.3654 16.1989 9.79883 15.5002 9.79883Z" fill="#333333"/>
<path d="M11.2826 29.2001H1.26546C0.566694 29.2001 0.000152588 29.7666 0.000152588 30.4654C0.000152588 31.1641 0.566694 31.7307 1.26546 31.7307H11.2826C11.9814 31.7307 12.5479 31.1641 12.5479 30.4654C12.5479 29.7666 11.9814 29.2001 11.2826 29.2001Z" fill="#333333"/>
<path d="M8.11932 24.4552H1.26546C0.566694 24.4552 0.000152588 25.0217 0.000152588 25.7205C0.000152588 26.4193 0.566694 26.9858 1.26546 26.9858H8.11932C8.81808 26.9858 9.38463 26.4193 9.38463 25.7205C9.38463 25.0217 8.81808 24.4552 8.11932 24.4552Z" fill="#333333"/>
<path d="M4.95605 19.7103H1.26546C0.566694 19.7103 0.000152588 20.2769 0.000152588 20.9756C0.000152588 21.6744 0.566694 22.2409 1.26546 22.2409H4.95605C5.65481 22.2409 6.22136 21.6744 6.22136 20.9756C6.22136 20.2769 5.65481 19.7103 4.95605 19.7103Z" fill="#333333"/>
</svg>
