<svg width="35" height="36" viewBox="0 0 35 36" fill="none" xmlns="http://www.w3.org/2000/svg">
<path d="M31.7354 9.8474H29.9954V9.29423C29.9954 7.33176 28.399 5.73538 26.4365 5.73538H25.8828V4.86536C25.8828 4.21024 25.3522 3.67908 24.6965 3.67908C24.0408 3.67908 23.5102 4.21024 23.5102 4.86536V5.73538H4.45088C2.48841 5.73538 0.892029 7.33176 0.892029 9.29423V16.4646C0.892029 17.7731 1.95609 18.8372 3.2646 18.8372H4.38195V20.1556C4.38195 20.8107 4.91311 21.3418 5.56823 21.3418C6.22335 21.3418 6.75452 20.8107 6.75452 20.1556V18.8372H7.90083C9.01876 18.8372 9.96988 18.0755 10.2149 16.9865L10.826 14.2763H18.0537V24.2415H3.2646C1.95609 24.2415 0.892029 25.3056 0.892029 26.6141V29.2236C0.892029 31.186 2.48841 32.7824 4.45088 32.7824H26.4365C28.399 32.7824 29.9954 31.186 29.9954 29.2236V19.417H31.7354C33.0433 19.417 34.108 18.353 34.108 17.0445V12.22C34.108 10.9115 33.0433 9.8474 31.7354 9.8474ZM27.6228 29.2236C27.6228 29.8775 27.0911 30.4098 26.4365 30.4098H4.45088C3.79692 30.4098 3.2646 29.8775 3.2646 29.2236V26.6141H18.0537C19.3617 26.6141 20.4263 25.55 20.4263 24.2415V14.2763C20.4263 12.9678 19.3617 11.9037 18.0537 11.9037H10.826C9.70922 11.9037 8.75753 12.6648 8.51135 13.7544L7.90083 16.4646H3.2646V9.29423C3.2646 8.64027 3.79692 8.10795 4.45088 8.10795H26.4365C27.0911 8.10795 27.6228 8.64027 27.6228 9.29423V29.2236ZM29.9954 17.0445V12.22H31.7354L31.7366 17.0445H29.9954Z" fill="#333333"/>
<path d="M23.8847 15.2988H23.8741C23.2706 15.2988 22.7856 15.7886 22.7856 16.3926C22.7856 16.9966 23.2812 17.4863 23.8847 17.4863C24.4893 17.4863 24.9785 16.9966 24.9785 16.3926C24.9785 15.7886 24.4893 15.2988 23.8847 15.2988Z" fill="#333333"/>
<path d="M23.8847 20.7676H23.8741C23.2706 20.7676 22.7856 21.2573 22.7856 21.8613C22.7856 22.4653 23.2812 22.9551 23.8847 22.9551C24.4893 22.9551 24.9785 22.4653 24.9785 21.8613C24.9785 21.2573 24.4893 20.7676 23.8847 20.7676Z" fill="#333333"/>
</svg>
