<svg width="24" height="28" viewBox="0 0 24 28" fill="none" xmlns="http://www.w3.org/2000/svg">
<path d="M18 1H6.00034C2.70072 1 0.000488281 3.70023 0.000488281 6.99985V19.0001C0.000488281 22.2989 2.70072 25 6.00034 25H18C21.2997 25 23.9999 22.2989 23.9999 19.0001V6.99985C23.9999 3.70023 21.2997 1 18 1ZM21.9999 19.0001C21.9999 21.2051 20.2062 23 18 23H6.00034C3.7951 23 2.00054 21.2051 2.00054 19.0001V6.99985C2.00054 4.79432 3.7951 3.00005 6.00034 3.00005H18C20.2062 3.00005 21.9999 4.79432 21.9999 6.99985V19.0001Z" fill="#C855C8"/>
<path d="M18.5009 7.99968C19.3293 7.99968 20.0009 7.32813 20.0009 6.49972C20.0009 5.67131 19.3293 4.99976 18.5009 4.99976C17.6725 4.99976 17.001 5.67131 17.001 6.49972C17.001 7.32813 17.6725 7.99968 18.5009 7.99968Z" fill="#C855C8"/>
<path d="M11.9999 6.99976C8.68552 6.99976 6 9.68557 6 12.9996C6 16.3124 8.68552 19 11.9999 19C15.3132 19 17.9997 16.3124 17.9997 12.9996C17.9997 9.68557 15.3132 6.99976 11.9999 6.99976ZM11.9999 17C9.79098 17 8.00005 15.2091 8.00005 12.9996C8.00005 10.7902 9.79098 8.9998 11.9999 8.9998C14.2087 8.9998 15.9997 10.7902 15.9997 12.9996C15.9997 15.2091 14.2087 17 11.9999 17Z" fill="#C855C8"/>
</svg>
